<?xml version="1.0"?>
<svg xmlns="http://www.w3.org/2000/svg" xmlns:xlink="http://www.w3.org/1999/xlink" xmlns:svgjs="http://svgjs.com/svgjs" version="1.1" width="512" height="512" x="0" y="0" viewBox="0 0 64 64" style="enable-background:new 0 0 512 512" xml:space="preserve" class=""><g><g xmlns="http://www.w3.org/2000/svg" id="App_development" data-name="App development"><path d="M57,30H53V17a3,3,0,0,0-3-3H44.949a12.987,12.987,0,0,0-25.9.01c-.017,0-.032-.01-.05-.01H13a3,3,0,0,0-3,3V30H7a3,3,0,0,0-3,3V54H3a1,1,0,0,0-1,1v2a5.006,5.006,0,0,0,5,5H35a5.006,5.006,0,0,0,5-5V55a1,1,0,0,0-1-1H38V33a3,3,0,0,0-3-3H12V17a1,1,0,0,1,1-1h6c.018,0,.033-.009.05-.01a12.987,12.987,0,0,0,25.9.01H50a1,1,0,0,1,1,1V30H47a5.006,5.006,0,0,0-5,5V57a5.006,5.006,0,0,0,5,5H57a5.006,5.006,0,0,0,5-5V35A5.006,5.006,0,0,0,57,30ZM38,57a3,3,0,0,1-3,3H7a3,3,0,0,1-3-3V56H16a3,3,0,0,0,3,3h4a3,3,0,0,0,3-3H38ZM18,56h6a1,1,0,0,1-1,1H19A1,1,0,0,1,18,56ZM35,32a1,1,0,0,1,1,1V54H6V33a1,1,0,0,1,1-1Zm-3-6A11,11,0,1,1,43,15,11.013,11.013,0,0,1,32,26ZM44,38H60V54H44Zm3-6H57a3,3,0,0,1,3,3v1H44V35A3,3,0,0,1,47,32ZM57,60H47a3,3,0,0,1-3-3V56H60v1A3,3,0,0,1,57,60Z" fill="#057fff" data-original="#000000" style="" class=""/><path d="M53,57H51a1,1,0,0,0,0,2h2a1,1,0,0,0,0-2Z" fill="#057fff" data-original="#000000" style="" class=""/><path d="M9,52H33a1,1,0,0,0,1-1V35a1,1,0,0,0-1-1H9a1,1,0,0,0-1,1V51A1,1,0,0,0,9,52Zm1-16H32V50H10Z" fill="#057fff" data-original="#000000" style="" class=""/><path d="M51,35h2a1,1,0,0,0,0-2H51a1,1,0,0,0,0,2Z" fill="#057fff" data-original="#000000" style="" class=""/><path d="M35.533,7.223,35,7.756V7a1,1,0,0,0-1-1H30a1,1,0,0,0-1,1v.756l-.533-.533a1,1,0,0,0-1.414,0l-2.83,2.83a1,1,0,0,0,0,1.414l.533.533H24a1,1,0,0,0-1,1v4a1,1,0,0,0,1,1h.756l-.533.533a1,1,0,0,0,0,1.414l2.83,2.83a1,1,0,0,0,1.414,0L29,22.244V23a1,1,0,0,0,1,1h4a1,1,0,0,0,1-1v-.756l.533.533a1,1,0,0,0,1.414,0l2.83-2.83a1,1,0,0,0,0-1.414L39.244,18H40a1,1,0,0,0,1-1V13a1,1,0,0,0-1-1h-.756l.533-.533a1,1,0,0,0,0-1.414l-2.83-2.83A1,1,0,0,0,35.533,7.223Zm.373,6.16A1,1,0,0,0,36.83,14H39v2H36.83a1,1,0,0,0-.707,1.707l1.533,1.533L36.24,20.656l-1.533-1.533A1,1,0,0,0,33,19.83V22H31V19.83a1,1,0,0,0-1.707-.707L27.76,20.656,26.344,19.24l1.533-1.533A1,1,0,0,0,27.17,16H25V14h2.17a1,1,0,0,0,.707-1.707L26.344,10.76,27.76,9.344l1.533,1.533A1,1,0,0,0,31,10.17V8h2v2.17a1,1,0,0,0,1.707.707L36.24,9.344l1.416,1.416-1.533,1.533A1,1,0,0,0,35.906,13.383Z" fill="#057fff" data-original="#000000" style="" class=""/><path d="M32,12a3,3,0,1,0,3,3A3,3,0,0,0,32,12Zm0,4a1,1,0,1,1,1-1A1,1,0,0,1,32,16Z" fill="#057fff" data-original="#000000" style="" class=""/><path d="M48,40H47a1,1,0,0,0,0,2h1a1,1,0,0,0,0-2Z" fill="#057fff" data-original="#000000" style="" class=""/><path d="M51,42h6a1,1,0,0,0,0-2H51a1,1,0,0,0,0,2Z" fill="#057fff" data-original="#000000" style="" class=""/><path d="M48,44H47a1,1,0,0,0,0,2h1a1,1,0,0,0,0-2Z" fill="#057fff" data-original="#000000" style="" class=""/><path d="M57,44H51a1,1,0,0,0,0,2h6a1,1,0,0,0,0-2Z" fill="#057fff" data-original="#000000" style="" class=""/><path d="M48,48H47a1,1,0,0,0,0,2h1a1,1,0,0,0,0-2Z" fill="#057fff" data-original="#000000" style="" class=""/><path d="M57,48H51a1,1,0,0,0,0,2h6a1,1,0,0,0,0-2Z" fill="#057fff" data-original="#000000" style="" class=""/><path d="M16,38H15a1,1,0,0,0,0,2h1a1,1,0,0,0,0-2Z" fill="#057fff" data-original="#000000" style="" class=""/><path d="M26,38H19a1,1,0,0,0,0,2h7a1,1,0,0,0,0-2Z" fill="#057fff" data-original="#000000" style="" class=""/><path d="M16,42H15a1,1,0,0,0,0,2h1a1,1,0,0,0,0-2Z" fill="#057fff" data-original="#000000" style="" class=""/><path d="M26,42H19a1,1,0,0,0,0,2h7a1,1,0,0,0,0-2Z" fill="#057fff" data-original="#000000" style="" class=""/><path d="M16,46H15a1,1,0,0,0,0,2h1a1,1,0,0,0,0-2Z" fill="#057fff" data-original="#000000" style="" class=""/><path d="M26,46H19a1,1,0,0,0,0,2h7a1,1,0,0,0,0-2Z" fill="#057fff" data-original="#000000" style="" class=""/></g></g></svg>
